<?xml version="1.0" encoding="UTF-8"?>
<svg id="_Слой_1" data-name="Слой 1" xmlns="http://www.w3.org/2000/svg" viewBox="0 0 14.1 21.65">
  <defs>
    <style>
      .cls-1 {
        fill: #3b7586;
      }

      .cls-2 {
        fill: #0f756b;
      }
    </style>
  </defs>
  <path class="cls-2" d="m3.3,8.92c.38.83,1.59.75,1.86-.12l.54-1.74c.13-.43.53-.71.97-.71l1.55.03c1.05.02,1.42-1.38.5-1.88L3.3,1.54c-.28-.15-.3-.54-.02-.69,1.01-.57,2.1-.85,3.28-.85,1.36,0,2.6.36,3.74,1.08,1.16.72,2.08,1.84,2.76,3.35.7,1.49,1.05,3.4,1.05,5.74,0,2.69-.38,4.89-1.15,6.59-.77,1.68-1.77,2.92-3.02,3.71-1.25.79-2.59,1.18-4.03,1.18-1.25,0-2.33-.23-3.25-.69-.61-.31-1.16-.66-1.65-1.05-.41-.33-.42-.93-.07-1.32l.66-.74c.4-.45,1.11-.44,1.61-.09.2.14.4.26.63.38.61.28,1.24.43,1.87.43.87,0,1.67-.24,2.39-.72.72-.48,1.31-1.28,1.77-2.39.21-.52.37-1.11.5-1.79.16-.91-1.09-1.46-1.91-1.03-.83.44-1.63.66-2.39.66-1.79,0-3.26-.52-4.4-1.57-1.12-1.07-1.67-2.7-1.67-4.89,0-.53.04-1.02.13-1.49.14-.81,1.14-.82,1.49-.07l1.69,3.67Z"/>
  <path class="cls-1" d="m5.8,5.66c-.42,0-.79.28-.9.68-.24.86-1.42.97-1.8.16l-1.24-2.7c-.45-.97.6-1.96,1.55-1.44l2.84,1.55c.85.46.52,1.75-.45,1.75Z"/>
</svg>