<svg width="68" height="18" viewBox="0 0 68 18" fill="none" xmlns="http://www.w3.org/2000/svg">
<path fill-rule="evenodd" clip-rule="evenodd" d="M41.9779 0.178618L41.3666 0.354564V5.69096V11.0273H42.0295H42.6923V8.34931V5.67124L42.9627 5.51075C44.3369 4.69469 45.3638 4.63493 45.9191 5.33866C46.0688 5.52844 46.1653 5.71395 46.245 5.96529C46.2965 6.12757 46.3005 6.29212 46.3089 8.58291L46.3179 11.0273H46.966H47.6141L47.6054 8.36977L47.5967 5.71219L47.529 5.51309C47.3405 4.95858 46.9173 4.48219 46.4039 4.24665C45.5215 3.84176 44.0367 4.02493 42.9198 4.67649C42.8099 4.7406 42.7138 4.79303 42.7062 4.79303C42.6986 4.79303 42.6923 3.71401 42.6923 2.39521C42.6923 0.128344 42.6895 -0.00247061 42.6408 3.37784e-05C42.6124 0.00149911 42.3141 0.0818527 41.9779 0.178618ZM7.17619 0.414669C5.77048 0.518175 5.00742 0.706378 4.56835 1.05792C4.39094 1.19998 4.25921 1.40603 4.18158 1.66303C4.12171 1.86117 4.11715 1.9376 4.11476 2.78153L4.11217 3.68737L6.01982 3.69422L7.92747 3.70109V3.89971V4.09833L5.09177 4.10661L2.25608 4.11492L2.02038 4.17559C1.19395 4.3883 0.605895 4.90594 0.327834 5.66535C0.247286 5.88537 0.0721358 6.68467 0.0332168 7.00997C-0.0412331 7.63204 0.00976534 8.33548 0.183207 9.07894C0.397659 9.99818 0.68167 10.4972 1.19545 10.8577C1.34954 10.9658 1.50239 11.0343 1.75523 11.1086C1.94537 11.1646 2.02734 11.1702 2.80654 11.1809L3.65162 11.1926L3.66211 10.1975C3.67222 9.24066 3.67525 9.19515 3.7411 9.01585C3.86719 8.67245 4.05354 8.38168 4.30243 8.1399C4.54464 7.90465 4.92346 7.67139 5.21722 7.57663C5.63608 7.4415 5.5233 7.44749 7.97166 7.43033C10.4609 7.41291 10.3074 7.42226 10.6969 7.26422C11.1825 7.06709 11.5876 6.61787 11.7482 6.09851C11.7976 5.93854 11.8017 5.77992 11.8017 4.0204C11.8017 2.2835 11.7971 2.10049 11.7498 1.9456C11.5632 1.33495 10.9985 0.839295 10.2326 0.613874C10.0098 0.548334 9.38243 0.463079 8.84225 0.42498C8.48223 0.39959 7.46639 0.393302 7.17619 0.414669ZM6.08732 1.55243C6.34425 1.66063 6.48897 1.86665 6.49165 2.1281C6.49359 2.31675 6.41154 2.48569 6.25672 2.61179C6.10361 2.7365 5.96387 2.77671 5.73027 2.76325C5.50898 2.75052 5.34629 2.66302 5.20443 2.48049C5.13473 2.39082 5.1141 2.33236 5.10462 2.19747C5.09802 2.10398 5.10803 1.98529 5.12686 1.93371C5.26006 1.56876 5.70584 1.39178 6.08732 1.55243ZM65.0538 1.71583V1.80908H65.319H65.5841V2.4485V3.08791H65.702H65.8198V2.4485V1.80908H66.085H66.3501V1.71583V1.62258H65.702H65.0538V1.71583ZM66.5269 2.35392V3.08791H66.63H66.7331L66.7343 2.53508L66.7354 1.98225L66.9345 2.52842L67.1337 3.07459H67.2501H67.3666L67.563 2.55507L67.7594 2.03554L67.7692 2.55507L67.779 3.07459L67.8895 3.08285L68 3.09114V2.35685V1.62258H67.8563H67.7125L67.488 2.19753C67.3645 2.51374 67.2626 2.78651 67.2616 2.80364C67.2606 2.8208 67.1696 2.56506 67.0593 2.23536L66.8589 1.6359L66.6929 1.62791L66.5269 1.61992V2.35392ZM37.8901 1.91703C37.6227 2.00413 37.3476 2.09439 37.2787 2.11762L37.1535 2.15983V3.11677V4.07368H36.7263H36.2991V4.44668V4.81967H36.725H37.1509L37.1612 7.26411C37.1706 9.51193 37.1756 9.72142 37.2237 9.86841C37.3216 10.1674 37.4487 10.3626 37.6856 10.5781C38.0229 10.8848 38.4085 11.0386 39.0089 11.1059C39.2879 11.1372 39.6616 11.1426 39.8014 11.1173L39.8935 11.1006V10.7992V10.4978L39.7535 10.4824C38.9587 10.395 38.6316 10.1935 38.5099 9.7163C38.4919 9.64552 38.4805 8.69145 38.48 7.21083L38.4793 4.81967H39.1864H39.8935V4.44668V4.07368H39.1864H38.4793V2.91474C38.4793 1.82818 38.4761 1.75587 38.4278 1.75723C38.3994 1.75803 38.1574 1.82994 37.8901 1.91703ZM23.2034 3.95329C22.1271 4.09124 21.2283 4.43831 20.6623 4.9345L20.4487 5.12174V9.67309C20.4487 12.1763 20.4522 14.2244 20.4564 14.2244C20.4606 14.2244 20.7409 14.3144 21.0792 14.4243C21.4175 14.5342 21.7124 14.6241 21.7344 14.6241C21.7679 14.6241 21.7745 14.2895 21.7745 12.6023V10.5805L22.1442 10.7498C22.5297 10.9264 22.892 11.0439 23.2918 11.122C23.5735 11.1771 24.2549 11.1851 24.5439 11.1368C25.8913 10.9114 26.8178 9.91359 27.0635 8.42308C27.1192 8.08472 27.1265 7.30149 27.0773 6.92442C26.9576 6.00678 26.604 5.22229 26.0589 4.66448C25.7574 4.35607 25.2751 4.0971 24.8091 3.99352C24.4759 3.91948 23.6322 3.89832 23.2034 3.95329ZM29.1031 4.10637L28.4918 4.29556V6.8446C28.4918 9.29437 28.494 9.40163 28.5499 9.59908C28.7322 10.2437 29.3469 10.7949 30.1514 11.0351C30.3976 11.1086 30.4651 11.1168 30.9129 11.1279C31.4537 11.1412 31.8343 11.111 32.3365 11.0149C32.6857 10.9481 33.2409 10.793 33.4966 10.6909C33.5837 10.6562 33.6617 10.6277 33.67 10.6277C33.7023 10.6277 33.6496 11.8271 33.6067 12.0711C33.5029 12.6606 33.282 12.9929 32.8021 13.281C32.4066 13.5184 31.9813 13.6399 31.0664 13.7767L30.5033 13.8609L30.6089 14.2292L30.7145 14.5974H30.8564C31.5186 14.5974 32.5263 14.3773 33.1725 14.0916C34.0511 13.703 34.5009 13.2328 34.7047 12.4899C34.8991 11.7811 34.9144 11.4156 34.9144 7.4951V4.07368H34.2663H33.6181V6.89573V9.71777L33.4487 9.81478C33.2003 9.95699 32.7826 10.1332 32.5126 10.2097C31.6466 10.455 30.7782 10.32 30.2609 9.85961C30.0348 9.65838 29.9276 9.4871 29.8451 9.19553C29.7907 9.00319 29.7881 8.87816 29.7881 6.45392C29.7881 4.43871 29.7805 3.91417 29.7513 3.91551C29.731 3.91644 29.4393 4.00233 29.1031 4.10637ZM51.6045 3.95459C50.5336 4.13235 49.6668 4.76156 49.1613 5.72818C48.765 6.48583 48.662 7.49382 48.8807 8.47362C49.1118 9.5086 49.777 10.3917 50.6524 10.8256C51.4809 11.2361 52.7595 11.272 53.682 10.9105C54.5158 10.5837 55.2077 9.84645 55.5509 8.91874C55.7236 8.45212 55.7815 8.08957 55.7845 7.45727C55.7867 6.99292 55.7773 6.86711 55.7217 6.61739C55.4247 5.2832 54.4829 4.31029 53.1907 4.00284C52.9419 3.94364 52.8257 3.93256 52.3705 3.92467C51.9919 3.91809 51.7728 3.92664 51.6045 3.95459ZM59.9569 3.93037C59.6566 3.96346 59.02 4.08898 58.7448 4.16938C58.3412 4.28733 57.7061 4.57701 57.2759 4.83944L56.9371 5.04613L56.9296 8.03674L56.9221 11.0273H57.5704H58.2187V8.12522V5.22309L58.4331 5.10224C58.689 4.95802 58.9999 4.83864 59.3228 4.7606C59.6396 4.68403 60.2899 4.67817 60.5733 4.74933C60.8456 4.81773 61.0727 4.92936 61.2687 5.09118C61.4822 5.2675 61.6117 5.4483 61.7167 5.71677L61.7983 5.92533L61.8068 8.47634L61.8153 11.0273H62.4623H63.1093L63.1088 8.27652C63.1084 5.99236 63.1012 5.49516 63.0661 5.34567C62.9485 4.84373 62.4724 4.36755 61.8478 4.12718C61.4577 3.97708 61.2066 3.93674 60.6051 3.92744C60.3053 3.92281 60.0136 3.92414 59.9569 3.93037ZM12.2581 4.9439C12.258 5.41041 12.2443 5.87005 12.2277 5.96529C12.152 6.39941 11.9235 6.81916 11.5878 7.141C11.2566 7.45847 10.9364 7.63846 10.4702 7.76914L10.2108 7.84188L7.92747 7.85648C5.67123 7.87089 5.64191 7.87174 5.45268 7.92988C5.17353 8.01564 4.91229 8.16564 4.68953 8.36806C4.45546 8.58078 4.30125 8.80663 4.19263 9.09578L4.11258 9.30892L4.10362 11.1606C4.09729 12.4708 4.10463 13.0655 4.12867 13.1947C4.171 13.4219 4.34241 13.7364 4.52758 13.9267C4.9934 14.4053 5.86612 14.7443 7.08781 14.921C7.4572 14.9744 8.49222 14.9671 8.87988 14.9083C10.5516 14.6547 11.4886 14.143 11.7485 13.3417C11.7845 13.2306 11.7979 13.0191 11.8085 12.3928L11.8222 11.5868H9.88956H7.95693V11.388V11.1891L11.0136 11.1812L14.0702 11.1732L14.2617 11.1114C14.5346 11.0234 14.6866 10.9369 14.8764 10.7617C15.3687 10.3073 15.8329 9.14775 15.9191 8.15762C16.0049 7.17126 15.7116 5.7289 15.2711 4.97089C15.1306 4.72906 14.7881 4.40048 14.5653 4.29386C14.217 4.12707 14.1558 4.1189 13.1643 4.10677L12.2583 4.09569L12.2581 4.9439ZM24.3309 4.78826C24.9742 5.00931 25.3524 5.5319 25.5318 6.44776C25.6141 6.86828 25.648 7.55614 25.6094 8.02773C25.5146 9.19014 25.1607 9.85641 24.4763 10.161C23.8137 10.4558 23.0027 10.3649 22.0617 9.89036L21.7745 9.7455V7.48434V5.22317L21.9439 5.1312C22.1568 5.0156 22.5746 4.86677 22.8918 4.79353C23.363 4.68475 24.0226 4.68233 24.3309 4.78826ZM52.7672 4.79636C53.5836 4.99282 54.111 5.64068 54.3155 6.69796C54.3772 7.01708 54.3776 7.89183 54.3162 8.31252C54.1447 9.48854 53.6541 10.1478 52.7977 10.3532C52.666 10.3848 52.4959 10.399 52.2527 10.3985C51.9483 10.3979 51.8694 10.3882 51.6851 10.3288C51.4018 10.2375 51.2172 10.1269 51.0039 9.92068C50.4674 9.40208 50.1734 8.50426 50.1765 7.3945C50.1805 6.00118 50.6687 5.12832 51.6096 4.83243C52.01 4.70652 52.3499 4.69594 52.7672 4.79636ZM10.3011 12.5319C10.687 12.636 10.8962 12.9966 10.7789 13.3555C10.7563 13.4246 10.6882 13.5147 10.5948 13.5992C10.3659 13.8062 10.1047 13.8522 9.82566 13.7347C9.53346 13.6117 9.36002 13.3096 9.42354 13.0345C9.46558 12.8524 9.58705 12.6919 9.74682 12.6072C9.96298 12.4927 10.0912 12.4752 10.3011 12.5319ZM7.14673 16.1586C5.49879 16.2713 4.60692 16.451 4.25146 16.742C4.07858 16.8836 4.06998 16.9795 4.21773 17.1176C4.83831 17.6979 8.25278 17.9351 10.4973 17.5538C11.3669 17.406 11.8753 17.1803 11.8753 16.942C11.8753 16.6235 11.0143 16.352 9.54786 16.2083C9.14444 16.1687 7.49703 16.1346 7.14673 16.1586Z" fill="#F7F7F7"/>
</svg>
