<svg width="18" height="22" viewBox="0 0 18 22" fill="none" xmlns="http://www.w3.org/2000/svg">
<path fill-rule="evenodd" clip-rule="evenodd" d="M16.5996 19.0001L4.59964 11.0001L16.5996 3.00013C16.7572 2.89507 16.8926 2.76001 16.998 2.60264C17.1034 2.44527 17.1767 2.26869 17.2139 2.08297C17.251 1.89726 17.2512 1.70604 17.2144 1.52025C17.1777 1.33445 17.1047 1.15772 16.9996 1.00013C16.8946 0.842545 16.7595 0.707194 16.6021 0.601807C16.4448 0.49642 16.2682 0.423061 16.0825 0.385917C15.8968 0.348774 15.7056 0.348573 15.5198 0.385328C15.334 0.422083 15.1572 0.495073 14.9996 0.600131L1.39644 9.66893C1.17731 9.81505 0.997636 10.013 0.873368 10.2452C0.749101 10.4774 0.684082 10.7368 0.684082 11.0001C0.684082 11.2635 0.749101 11.5228 0.873368 11.755C0.997636 11.9873 1.17731 12.1852 1.39644 12.3313L14.9996 21.4001C15.1572 21.5052 15.334 21.5782 15.5198 21.6149C15.7056 21.6517 15.8968 21.6515 16.0825 21.6143C16.2682 21.5772 16.4448 21.5038 16.6021 21.3985C16.7595 21.2931 16.8946 21.1577 16.9996 21.0001C17.1047 20.8425 17.1777 20.6658 17.2144 20.48C17.2512 20.2942 17.251 20.103 17.2139 19.9173C17.1767 19.7316 17.1034 19.555 16.998 19.3976C16.8926 19.2403 16.7572 19.1052 16.5996 19.0001Z" fill="white"/>
</svg>
