<svg width="40" height="40" viewBox="0 0 40 40" fill="none" xmlns="http://www.w3.org/2000/svg">
<path fill-rule="evenodd" clip-rule="evenodd" d="M12.4004 28.0001L24.4004 20.0001L12.4004 12.0001C12.2428 11.8951 12.1074 11.76 12.002 11.6026C11.8966 11.4453 11.8233 11.2687 11.7861 11.083C11.749 10.8973 11.7488 10.706 11.7856 10.5202C11.8223 10.3345 11.8953 10.1577 12.0004 10.0001C12.1054 9.84254 12.2405 9.70719 12.3979 9.60181C12.5552 9.49642 12.7318 9.42306 12.9175 9.38592C13.1032 9.34877 13.2944 9.34857 13.4802 9.38533C13.666 9.42208 13.8428 9.49507 14.0004 9.60013L27.6036 18.6689C27.8227 18.815 28.0024 19.013 28.1266 19.2452C28.2509 19.4774 28.3159 19.7368 28.3159 20.0001C28.3159 20.2635 28.2509 20.5228 28.1266 20.755C28.0024 20.9873 27.8227 21.1852 27.6036 21.3313L14.0004 30.4001C13.8428 30.5052 13.666 30.5782 13.4802 30.6149C13.2944 30.6517 13.1032 30.6515 12.9175 30.6143C12.7318 30.5772 12.5552 30.5038 12.3979 30.3985C12.2405 30.2931 12.1054 30.1577 12.0004 30.0001C11.8953 29.8425 11.8223 29.6658 11.7856 29.48C11.7488 29.2942 11.749 29.103 11.7861 28.9173C11.8233 28.7316 11.8966 28.555 12.002 28.3976C12.1074 28.2403 12.2428 28.1052 12.4004 28.0001Z" fill="white"/>
</svg>
