<svg width="19" height="19" viewBox="0 0 19 19" fill="none" xmlns="http://www.w3.org/2000/svg">
<path d="M7.99951 16C9.77449 15.9996 11.4983 15.4054 12.8965 14.312L17.2925 18.708L18.7065 17.294L14.3105 12.898C15.4045 11.4997 15.9991 9.77544 15.9995 8C15.9995 3.589 12.4105 0 7.99951 0C3.58851 0 -0.000488281 3.589 -0.000488281 8C-0.000488281 12.411 3.58851 16 7.99951 16ZM7.99951 2C11.3085 2 13.9995 4.691 13.9995 8C13.9995 11.309 11.3085 14 7.99951 14C4.69051 14 1.99951 11.309 1.99951 8C1.99951 4.691 4.69051 2 7.99951 2Z" fill="#242243" fill-opacity="0.3"/>
</svg>
