<?xml version="1.0" encoding="UTF-8"?>
<svg id="_Слой_1" data-name="Слой 1" xmlns="http://www.w3.org/2000/svg" viewBox="0 0 17.76 11.25">
  <defs>
    <style>
      .cls-1 {
        fill: #1b353d;
        fill-rule: evenodd;
      }
    </style>
  </defs>
  <path class="cls-1" d="m15.46,4.51v-2.25h-1.15v2.25h-2.3v1.12h2.3v2.25h1.15v-2.25h2.3v-1.12h-2.3Z"/>
  <path class="cls-1" d="m5.76,4.5v2.25h3.26c-.48,1.31-1.76,2.25-3.26,2.25-1.9,0-3.46-1.51-3.46-3.37s1.55-3.38,3.46-3.38c.83,0,1.62.29,2.24.81l1.51-1.7c-1.04-.88-2.37-1.37-3.75-1.37C2.58,0,0,2.52,0,5.62s2.58,5.62,5.76,5.62,5.76-2.52,5.76-5.62v-1.12h-5.76Z"/>
</svg>